<svg xmlns="http://www.w3.org/2000/svg" viewBox="0 0 1165 786">
<style type="text/css">
	text{font-family:sans-serif}
	.e{fill:#e5f2e5;stroke:#5cad5c;stroke-dasharray:12}
	.f{fill:#add9e5;stroke:#60b5cd}
	.g{fill:none;stroke:#3ca2be;stroke-dasharray:12}
	.r{fill:#83af40;stroke:#4b6525}
	.c{fill:#8b8a3d;stroke:#43431e}
	.l{fill:#c3642f;stroke:#6f381b}
	.w{fill:#ed2226;stroke:#9c0d0f}
	.n{fill:#b81e80;stroke:#601043}
	.d{fill:#939393;stroke:#616161}
	.t{fill:#fff;font-size:14px;text-anchor:middle}
</style>

<text y="88" font-size="88">HTML5</text>
<text x="5" y="134" font-size="24">Taxonomy &amp; Status (October 2014)</text>

<circle class="r" cx="27" cy="183.4" r="20.4"/>
<text x="63" y="193" font-size="24">Recommendation/Proposed</text>
<circle class="c" cx="27" cy="243.2" r="20.4"/>
<text x="63" y="253" font-size="24">Candidate Recommendation</text>
<circle class="l" cx="27" cy="303" r="20.4"/>
<text x="63" y="312" font-size="24">Last Call</text>
<circle class="w" cx="27" cy="362.7" r="20.4"/>
<text x="63" y="373" font-size="24">Working Draft</text>
<circle class="n" cx="27" cy="422.4" r="20.4"/>
<text x="63" y="433" font-size="24">Non-W3C Specifications</text>
<circle class="d" cx="27" cy="482.2" r="20.4"/>
<text x="63" y="493" font-size="24">Deprecated or inactive</text>

<g transform="translate(30)">
	<ellipse class="e" cx="748.7" cy="397.2" rx="378.6" ry="377.2"/>
	<ellipse class="f" cx="746" cy="406.6" rx="237.1" ry="256.1"/>
	<ellipse class="g" cx="752.7" cy="457.3" rx="186.6" ry="183.9"/>
	<g font-size="29" text-anchor="middle">
		<text x="572.6" y="92.7" transform="rotate(-29.8 572.6 92.7)">H</text>
		<text x="589.6" y="83.5" transform="rotate(-26.7 589.6 83.5)">T</text>
		<text x="608.6" y="74.7" transform="rotate(-23.3 608.6 74.7)">M</text>
		<text x="627.3" y="67.2" transform="rotate(-20 627.3 67.2)">L</text>
		<text x="642.6" y="62.1" transform="rotate(-17.4 642.6 62.1)">5</text>
		<text x="667.5" y="55.2" transform="rotate(-13.2 667.5 55.2)">&amp;</text>
		<text x="689.6" y="50.8" transform="rotate(-9.6 689.6 50.8)">r</text>
		<text x="702.4" y="48.8" transform="rotate(-7.5 702.4 48.8)">e</text>
		<text x="713.5" y="47.5" transform="rotate(-5.7 713.5 47.5)">l</text>
		<text x="724.8" y="46.6" transform="rotate(-3.9 724.8 46.6)">a</text>
		<text x="736.9" y="46" transform="rotate(-1.9 736.9 46)">t</text>
		<text x="748.9" y="45.8" transform="rotate(0 748.9 45.8)">e</text>
		<text x="764.9" y="46.2" transform="rotate(2.6 764.9 46.2)">d</text>
		<text x="785.1" y="47.7" transform="rotate(5.9 785.1 47.7)">t</text>
		<text x="797" y="49.1" transform="rotate(7.8 797 49.1)">e</text>
		<text x="812.3" y="51.5" transform="rotate(10.3 812.3 51.5)">c</text>
		<text x="827.2" y="54.6" transform="rotate(12.8 827.2 54.6)">h</text>
		<text x="842.9" y="58.5" transform="rotate(15.4 842.9 58.5)">n</text>
		<text x="858.3" y="63.2" transform="rotate(18 858.3 63.2)">o</text>
		<text x="869" y="66.8" transform="rotate(19.8 869 66.8)">l</text>
		<text x="879.6" y="70.9" transform="rotate(21.7 879.6 70.9)">o</text>
		<text x="894.4" y="77.1" transform="rotate(24.3 894.4 77.1)">g</text>
		<text x="904.6" y="82" transform="rotate(26.1 904.6 82)">i</text>
		<text x="914.7" y="87.1" transform="rotate(27.9 914.7 87.1)">e</text>
		<text x="928.1" y="94.5" transform="rotate(30.4 928.1 94.5)">s</text>
	</g>
	<g font-size="25" text-anchor="middle">
		<text x="622.7" y="215" transform="rotate(-36.8 622.7 215)">W</text>
		<text x="638.2" y="204.4" transform="rotate(-31.8 638.2 204.4)">3</text>
		<text x="652" y="196.5" transform="rotate(-27.5 652 196.5)">C</text>
		<text x="674.9" y="186.3" transform="rotate(-20.6 674.9 186.3)">H</text>
		<text x="690.7" y="181.1" transform="rotate(-15.9 690.7 181.1)">T</text>
		<text x="708.2" y="176.9" transform="rotate(-10.8 708.2 176.9)">M</text>
		<text x="725.4" y="174.4" transform="rotate(-5.9 725.4 174.4)">L</text>
		<text x="739.3" y="173.4" transform="rotate(-1.9 739.3 173.4)">5</text>
		<text x="759.3" y="173.7" transform="rotate(3.8 759.3 173.7)">s</text>
		<text x="772.5" y="175.1" transform="rotate(7.6 772.5 175.1)">p</text>
		<text x="786.3" y="177.4" transform="rotate(11.5 786.3 177.4)">e</text>
		<text x="799" y="180.4" transform="rotate(15.3 799 180.4)">c</text>
		<text x="807.7" y="183" transform="rotate(17.8 807.7 183)">i</text>
		<text x="813.3" y="184.9" transform="rotate(19.5 813.3 184.9)">f</text>
		<text x="819.2" y="187.1" transform="rotate(21.2 819.2 187.1)">i</text>
		<text x="827.9" y="190.7" transform="rotate(23.8 827.9 190.7)">c</text>
		<text x="839.7" y="196.4" transform="rotate(27.4 839.7 196.4)">a</text>
		<text x="848.9" y="201.4" transform="rotate(30.3 848.9 201.4)">t</text>
		<text x="854.2" y="204.6" transform="rotate(31.9 854.2 204.6)">i</text>
		<text x="862.4" y="210" transform="rotate(34.6 862.4 210)">o</text>
		<text x="873.6" y="218.2" transform="rotate(38.2 873.6 218.2)">n</text>
	</g>
	<g font-size="25" text-anchor="middle">
		<text x="596.9" y="405" transform="rotate(-70.8 596.9 405)">I</text>
		<text x="600.6" y="395.2" transform="rotate(-67 600.6 395.2)">n</text>
		<text x="604.7" y="386.4" transform="rotate(-63.6 604.7 386.4)">i</text>
		<text x="607.6" y="380.8" transform="rotate(-61.4 607.6 380.8)">t</text>
		<text x="610.7" y="375.4" transform="rotate(-59.2 610.7 375.4)">i</text>
		<text x="615.9" y="367.2" transform="rotate(-55.7 615.9 367.2)">a</text>
		<text x="621.6" y="359.3" transform="rotate(-52.3 621.6 359.3)">l</text>
		<text x="635.9" y="343.2" transform="rotate(-44.7 635.9 343.2)">W</text>
		<text x="651.6" y="329.5" transform="rotate(-37.4 651.6 329.5)">H</text>
		<text x="665.2" y="320.2" transform="rotate(-31.7 665.2 320.2)">A</text>
		<text x="678.3" y="312.9" transform="rotate(-26.5 678.3 312.9)">T</text>
		<text x="696.2" y="305.2" transform="rotate(-19.8 696.2 305.2)">W</text>
		<text x="716.9" y="299.3" transform="rotate(-12.4 716.9 299.3)">G</text>
		<text x="742.3" y="295.7" transform="rotate(-3.6 742.3 295.7)">H</text>
		<text x="758.9" y="295.5" transform="rotate(2.1 758.9 295.5)">T</text>
		<text x="776.8" y="297.2" transform="rotate(8.3 776.8 297.2)">M</text>
		<text x="793.9" y="300.6" transform="rotate(14.3 793.9 300.6)">L</text>
		<text x="807.2" y="304.5" transform="rotate(19.1 807.2 304.5)">5</text>
		<text x="825.8" y="312.3" transform="rotate(26 825.8 312.3)">s</text>
		<text x="837.5" y="318.5" transform="rotate(30.6 837.5 318.5)">p</text>
		<text x="849.1" y="326.1" transform="rotate(35.4 849.1 326.1)">e</text>
		<text x="859.6" y="334.2" transform="rotate(40 859.6 334.2)">c</text>
		<text x="866.3" y="340.2" transform="rotate(43.2 866.3 340.2)">i</text>
		<text x="870.6" y="344.3" transform="rotate(45.2 870.6 344.3)">f</text>
		<text x="874.9" y="348.8" transform="rotate(47.4 874.9 348.8)">i</text>
		<text x="881" y="355.9" transform="rotate(50.7 881 355.9)">c</text>
		<text x="889" y="366.5" transform="rotate(55.4 889 366.5)">a</text>
		<text x="894.6" y="375.3" transform="rotate(59.1 894.6 375.3)">t</text>
		<text x="897.7" y="380.7" transform="rotate(61.3 897.7 380.7)">i</text>
		<text x="902.1" y="389.4" transform="rotate(64.8 902.1 389.4)">o</text>
		<text x="907.5" y="402.2" transform="rotate(69.7 907.5 402.2)">n</text>
	</g>

	<circle class="r" cx="751" cy="471.5" r="59.1"/>
	<text class="t" x="751" y="465">HTML5<tspan x="751" dy="1.3em">Markup</tspan></text>
	<circle class="r" cx="748" cy="354.1" r="37.4"/>
	<text class="t" x="748" y="347">Web<tspan x="748" dy="1.3em">Messaging</tspan></text>
	<circle class="c" cx="840.5" cy="395.2" r="37.4"/>
	<text class="t" x="841" y="389">Web<tspan x="841" dy="1.3em">Sockets</tspan></text>
	<circle class="c" cx="869.3" cy="494.6" r="37.4"/>
	<text class="t" x="870" y="488">Web<tspan x="870" dy="1.3em">Workers</tspan></text>
	<circle class="d" cx="805" cy="574.3" r="37.4"/>
	<text class="t" x="805" y="569">Micro<tspan x="805" dy="1.3em">Data</tspan></text>
	<circle class="r" cx="703" cy="572" r="37.4"/>
	<text class="t" x="703" y="560">Drag<tspan x="703" dy="1.3em" font-size="12">and</tspan>
		<tspan x="703" dy="1.3em">Drop</tspan></text>
	<circle class="r" cx="638.3" cy="499.9" r="37.4"/>
	<text class="t" x="638" y="495">Audio<tspan x="638" dy="1.3em">Video</tspan></text>
	<circle class="r" cx="657.8" cy="400.7" r="37.4"/>
	<text class="t" x="658" y="397">Canvas<tspan x="658" dy="1.3em">2D</tspan></text>
	<circle class="w" cx="600.5" cy="278.7" r="37.4"/>
	<text class="t" x="601" y="283">HTML 5.1</text>
	<circle class="d" cx="687.9" cy="231" r="37.4"/>
	<text class="t" x="688" y="234">WebSQL</text>
	<circle class="r" cx="790.2" cy="226.2" r="37.4"/>
	<text class="t" x="791" y="220">Web<tspan x="791" dy="1.3em">Storage</tspan></text>
	<circle class="r" cx="883.2" cy="263.6" r="37.4"/>
	<text class="t" x="884" y="259">HTML +<tspan x="884" dy="1.3em">RDFa</tspan></text>
	<circle class="r" cx="649.4" cy="109" r="37.4"/>
	<text class="t" x="650" y="107">MathML<tspan x="650" dy="1.3em">3.0</tspan></text>
	<circle class="r" cx="742.2" cy="96.4" r="37.4"/>
	<text class="t" x="743" y="100">SVG</text>
	<circle class="r" cx="837.7" cy="109.1" r="37.4"/>
	<text class="t" x="838" y="107">Selectors<tspan x="838" dy="1.3em">L1</tspan></text>
	<circle class="r" cx="920.5" cy="150.6" r="37.4"/>
	<text class="t" x="921" y="148">Navigation<tspan x="921" dy="1.3em">Timing</tspan></text>
	<circle class="r" cx="995.4" cy="210" r="37.4"/>
	<text class="t" x="995" y="205">User<tspan x="995" dy="1.3em">Timing</tspan></text>
	<circle class="r" cx="1039" cy="291.6" r="37.4"/>
	<text class="t" x="1039" y="296">RDFa</text>
	<circle class="r" cx="1056.5" cy="382.5" r="37.4"/>
	<text class="t" x="1057" y="376">Geo<tspan x="1057" dy="1.3em">Location</tspan></text>
	<circle class="r" cx="1052.6" cy="482" r="37.4"/>
	<text class="t" x="1053" y="487">WAI-ARIA</text>
	<circle class="r" cx="1015.2" cy="572" r="37.4"/>
	<text class="t" x="1015" y="567">Touch<tspan x="1015" dy="1.3em">Events</tspan></text>
	<circle class="r" cx="951.1" cy="640.3" r="37.4"/>
	<text class="t" x="951" y="637">Animation<tspan x="951" dy="1.3em">Timing</tspan></text>
	<circle class="r" cx="875.1" cy="691.1" r="37.4"/>
	<text class="t" x="875" y="689">WOFF<tspan x="875" dy="1.3em">1.0</tspan></text>
	<circle class="c" cx="784.5" cy="717" r="37.4"/>
	<text class="t" x="785" y="712">Media<tspan x="785" dy="1.3em">Capture</tspan></text>
	<circle class="c" cx="686.8" cy="712.5" r="37.4"/>
	<text class="t" x="687" y="707">Indexed<tspan x="687" dy="1.3em">Database</tspan></text>
	<circle class="l" cx="596.1" cy="675.1" r="37.4"/>
	<text class="t" x="596" y="679">File API</text>
	<circle class="l" cx="520" cy="618.5" r="37.4"/>
	<text class="t" x="520" y="614">Battery<tspan x="520" dy="1.3em">Status</tspan></text>
	<circle class="w" cx="468.9" cy="534.5" r="37.4"/>
	<text class="t" x="469" y="529">XMLHttp<tspan x="469" dy="1.3em">Request</tspan></text>
	<circle class="w" cx="442.5" cy="442.7" r="37.4"/>
	<text class="t" x="443" y="436">Device<tspan x="443" dy="1.3em">Orientation</tspan></text>
	<circle class="n" cx="443.8" cy="350.8" r="37.4"/>
	<text class="t" x="444" y="353">JavaScript</text>
	<circle class="n" cx="471.4" cy="263.6" r="37.4"/>
	<text class="t" x="471" y="267">WebGL</text>

	<path class="r" d="M541.5 231v-64.4s0-1-.2-1.3L520 105c-25.2 8.8-43.2 32.8-43.2 61 0 36 29 64.8 64.7 65"/>
	<path class="c" d="M541.3 165.33c.05 0 .1 0 .14.02l42.37-48.52c-11.33-9.72-26.06-15.6-42.16-15.6-7.57 0-14.83 1.3-21.6 3.7l21.22 60.4h.04"/>
	<path class="l" d="M541.6 166.5l62.5 17c1.7-5.6 2.5-11.4 2.5-17.4 0-19.6-8.8-37.3-22.7-49.2l-42.4 48.6c-.2.2-.2.7.2 1"/>
	<path class="w" d="M541.5 166.6V231c30 0 55-20 62.6-47.5l-62.4-17"/>
	<text class="t" x="543" y="169">CSS3</text>
</g>

</svg>